<mxfile host="65bd71144e">
    <diagram id="H93xGM5o_MMsNFE5G5AN" name="Page-1">
        <mxGraphModel dx="642" dy="355" grid="1" gridSize="10" guides="1" tooltips="1" connect="1" arrows="1" fold="1" page="1" pageScale="1" pageWidth="850" pageHeight="1100" math="0" shadow="0">
            <root>
                <mxCell id="0"/>
                <mxCell id="1" parent="0"/>
                <mxCell id="2" value="XECS" style="swimlane;childLayout=stackLayout;resizeParent=1;resizeParentMax=0;startSize=20;horizontal=0;horizontalStack=1;" parent="1" vertex="1">
                    <mxGeometry x="130" width="510" height="480" as="geometry"/>
                </mxCell>
                <mxCell id="3" value="Customer" style="swimlane;startSize=20;" parent="2" vertex="1">
                    <mxGeometry x="20" width="130" height="480" as="geometry"/>
                </mxCell>
                <mxCell id="12" style="edgeStyle=none;html=1;exitX=0.5;exitY=1;exitDx=0;exitDy=0;entryX=0;entryY=0.5;entryDx=0;entryDy=0;" parent="3" source="7" edge="1">
                    <mxGeometry relative="1" as="geometry">
                        <mxPoint x="50" y="245" as="targetPoint"/>
                    </mxGeometry>
                </mxCell>
                <mxCell id="7" value="Start" style="ellipse;whiteSpace=wrap;html=1;rotation=-89;" parent="3" vertex="1">
                    <mxGeometry x="-10" y="230" width="60" height="30" as="geometry"/>
                </mxCell>
                <mxCell id="17" style="edgeStyle=orthogonalEdgeStyle;html=1;exitX=0;exitY=0;exitDx=0;exitDy=0;entryX=0.5;entryY=0;entryDx=0;entryDy=0;" parent="3" source="14" target="16" edge="1">
                    <mxGeometry relative="1" as="geometry"/>
                </mxCell>
                <mxCell id="14" value="Customer Feedback" style="rounded=0;whiteSpace=wrap;html=1;rotation=-90;" parent="3" vertex="1">
                    <mxGeometry x="20" y="230" width="90" height="30" as="geometry"/>
                </mxCell>
                <mxCell id="9" value="Rate" style="rounded=0;whiteSpace=wrap;html=1;rotation=-90;" parent="3" vertex="1">
                    <mxGeometry x="-10" y="380" width="90" height="30" as="geometry"/>
                </mxCell>
                <mxCell id="13" value="Buy" style="rounded=0;whiteSpace=wrap;html=1;rotation=-90;" parent="3" vertex="1">
                    <mxGeometry x="40" y="380" width="90" height="30" as="geometry"/>
                </mxCell>
                <mxCell id="18" style="edgeStyle=orthogonalEdgeStyle;html=1;exitX=0.5;exitY=1;exitDx=0;exitDy=0;entryX=1;entryY=0.5;entryDx=0;entryDy=0;" parent="3" source="16" target="9" edge="1">
                    <mxGeometry relative="1" as="geometry"/>
                </mxCell>
                <mxCell id="19" style="edgeStyle=orthogonalEdgeStyle;html=1;exitX=0.5;exitY=1;exitDx=0;exitDy=0;entryX=1;entryY=0.25;entryDx=0;entryDy=0;" parent="3" source="16" target="13" edge="1">
                    <mxGeometry relative="1" as="geometry"/>
                </mxCell>
                <mxCell id="16" value="" style="rhombus;whiteSpace=wrap;html=1;" parent="3" vertex="1">
                    <mxGeometry x="40" y="310" width="20" height="20" as="geometry"/>
                </mxCell>
                <mxCell id="4" value="Database" style="swimlane;startSize=20;" parent="2" vertex="1">
                    <mxGeometry x="150" width="120" height="480" as="geometry"/>
                </mxCell>
                <mxCell id="22" value="Record Ratings" style="rounded=0;whiteSpace=wrap;html=1;rotation=-90;" parent="4" vertex="1">
                    <mxGeometry x="-10" y="390" width="90" height="30" as="geometry"/>
                </mxCell>
                <mxCell id="21" value="Record Items That user shown Interest in" style="rounded=0;whiteSpace=wrap;html=1;rotation=-90;" parent="4" vertex="1">
                    <mxGeometry x="-15" y="255" width="120" height="50" as="geometry"/>
                </mxCell>
                <mxCell id="5" value="System" style="swimlane;startSize=20;" parent="2" vertex="1">
                    <mxGeometry x="270" width="120" height="480" as="geometry"/>
                </mxCell>
                <mxCell id="32" value="Process new Information to upgrate Preferances list" style="rounded=0;whiteSpace=wrap;html=1;rotation=-90;" parent="5" vertex="1">
                    <mxGeometry x="-15" y="250" width="120" height="50" as="geometry"/>
                </mxCell>
                <mxCell id="27" style="edgeStyle=orthogonalEdgeStyle;html=1;exitX=1;exitY=0.75;exitDx=0;exitDy=0;entryX=0.5;entryY=0;entryDx=0;entryDy=0;" parent="2" source="13" target="21" edge="1">
                    <mxGeometry relative="1" as="geometry"/>
                </mxCell>
                <mxCell id="28" style="edgeStyle=orthogonalEdgeStyle;html=1;exitX=0;exitY=0.5;exitDx=0;exitDy=0;entryX=0;entryY=0.5;entryDx=0;entryDy=0;" parent="2" source="9" target="22" edge="1">
                    <mxGeometry relative="1" as="geometry"/>
                </mxCell>
                <mxCell id="34" style="edgeStyle=orthogonalEdgeStyle;html=1;exitX=0.5;exitY=1;exitDx=0;exitDy=0;entryX=0.38;entryY=0.017;entryDx=0;entryDy=0;entryPerimeter=0;" parent="2" source="21" target="32" edge="1">
                    <mxGeometry relative="1" as="geometry"/>
                </mxCell>
                <mxCell id="6" value="UI" style="swimlane;startSize=20;" parent="2" vertex="1">
                    <mxGeometry x="390" width="120" height="480" as="geometry"/>
                </mxCell>
                <mxCell id="36" value="Show the recommended list" style="rounded=0;whiteSpace=wrap;html=1;rotation=-90;" parent="6" vertex="1">
                    <mxGeometry y="240" width="120" height="50" as="geometry"/>
                </mxCell>
                <mxCell id="8" value="End" style="ellipse;whiteSpace=wrap;html=1;rotation=-90;" parent="6" vertex="1">
                    <mxGeometry x="30" y="80" width="60" height="30" as="geometry"/>
                </mxCell>
                <mxCell id="33" style="edgeStyle=orthogonalEdgeStyle;html=1;exitX=0.5;exitY=1;exitDx=0;exitDy=0;" parent="1" source="22" edge="1">
                    <mxGeometry relative="1" as="geometry">
                        <mxPoint x="450" y="340" as="targetPoint"/>
                    </mxGeometry>
                </mxCell>
                <mxCell id="35" style="edgeStyle=orthogonalEdgeStyle;html=1;exitX=0.5;exitY=1;exitDx=0;exitDy=0;" parent="1" source="32" edge="1">
                    <mxGeometry relative="1" as="geometry">
                        <mxPoint x="560" y="280" as="targetPoint"/>
                    </mxGeometry>
                </mxCell>
                <mxCell id="37" style="edgeStyle=orthogonalEdgeStyle;html=1;exitX=1;exitY=0.5;exitDx=0;exitDy=0;" parent="1" source="36" edge="1">
                    <mxGeometry relative="1" as="geometry">
                        <mxPoint x="580" y="130" as="targetPoint"/>
                    </mxGeometry>
                </mxCell>
            </root>
        </mxGraphModel>
    </diagram>
</mxfile>